<?xml version="1.0" encoding="UTF-8" standalone="no"?>
<svg xmlns="http://www.w3.org/2000/svg" width="1000" height="1000" viewBox="-1.100000 -1.100000 4.200000 6.200000">
    <rect width="100%" height="100%" fill="#f8f8f8"/>
    <circle cx="0" cy="0" r="0.2" fill="red"/>
    <path d="M 2,2 L 2,2.25 L 3,2.25 L 3,2 Z" fill="#333333" stroke="none"/>
    <path d="M 2,2.75 L 2,3 L 2.25,3 L 2.25,2.75 Z" fill="#333333" stroke="none"/>
    <path d="M 2.75,2.75 L 2.75,3 L 3,3 L 3,2.75 Z" fill="#333333" stroke="none"/>
    <path d="M 1,2 L 1,2.25 L 1.25,2.25 L 1.25,2 Z" fill="#333333" stroke="none"/>
    <path d="M 1.75,2 L 1.75,2.25 L 2,2.25 L 2,2 Z" fill="#333333" stroke="none"/>
    <path d="M 1,2.75 L 1,3 L 1.25,3 L 1.25,2.75 Z" fill="#333333" stroke="none"/>
    <path d="M 1.75,2.75 L 1.75,3 L 2,3 L 2,2.75 Z" fill="#333333" stroke="none"/>
    <path d="M 1,1 L 1,1.25 L 1.25,1.25 L 1.25,1 Z" fill="#333333" stroke="none"/>
    <path d="M 1.75,1 L 1.75,1.25 L 2,1.25 L 2,1 Z" fill="#333333" stroke="none"/>
    <path d="M 1,1.75 L 1,2 L 1.25,2 L 1.25,1.75 Z" fill="#333333" stroke="none"/>
    <path d="M 1.75,1.75 L 1.75,2 L 2,2 L 2,1.75 Z" fill="#333333" stroke="none"/>
    <path d="M 2,1 L 2,1.25 L 3,1.25 L 3,1 Z" fill="#333333" stroke="none"/>
    <path d="M 2,1.75 L 2,2 L 2.25,2 L 2.25,1.75 Z" fill="#333333" stroke="none"/>
    <path d="M 2.75,1.75 L 2.75,2 L 3,2 L 3,1.75 Z" fill="#333333" stroke="none"/>
    <path d="M 2,0 L 2,0.25 L 2.25,0.25 L 2.25,0 Z" fill="#333333" stroke="none"/>
    <path d="M 2.75,0 L 2.75,0.75 L 3,0.75 L 3,0 Z" fill="#333333" stroke="none"/>
    <path d="M 2,0.75 L 2,1 L 3,1 L 3,0.75 Z" fill="#333333" stroke="none"/>
    <path d="M 1,0 L 1.25,2.98122e-09 L 1.25,-1 L 1,-1 Z" fill="#333333" stroke="none"/>
    <path d="M 1.75,8.94366e-09 L 2,1.19249e-08 L 2,-0.25 L 1.75,-0.25 Z" fill="#333333" stroke="none"/>
    <path d="M 1.75,-0.75 L 2,-0.75 L 2,-1 L 1.75,-1 Z" fill="#333333" stroke="none"/>
    <path d="M 0,0 L 0,0.75 L 0.25,0.75 L 0.25,0 Z" fill="#333333" stroke="none"/>
    <path d="M 0.75,0 L 0.75,0.25 L 1,0.25 L 1,0 Z" fill="#333333" stroke="none"/>
    <path d="M 0,0.75 L 0,1 L 1,1 L 1,0.75 Z" fill="#333333" stroke="none"/>
    <path d="M 0,1 L 2.18557e-08,0.75 L -1,0.75 L -1,1 Z" fill="#333333" stroke="none"/>
    <path d="M 6.55671e-08,0.25 L 8.74228e-08,0 L -0.25,0 L -0.25,0.25 Z" fill="#333333" stroke="none"/>
    <path d="M -0.75,0.25 L -0.75,-1.19209e-07 L -1,-1.19209e-07 L -1,0.25 Z" fill="#333333" stroke="none"/>
    <path d="M 0,2 L 2.18557e-08,1.75 L -1,1.75 L -1,2 Z" fill="#333333" stroke="none"/>
    <path d="M 6.55671e-08,1.25 L 8.74228e-08,1 L -0.25,1 L -0.25,1.25 Z" fill="#333333" stroke="none"/>
    <path d="M -0.75,1.25 L -0.75,1 L -1,1 L -1,1.25 Z" fill="#333333" stroke="none"/>
    <path d="M 0,3 L 2.18557e-08,2.75 L -1,2.75 L -1,3 Z" fill="#333333" stroke="none"/>
    <path d="M 6.55671e-08,2.25 L 8.74228e-08,2 L -0.25,2 L -0.25,2.25 Z" fill="#333333" stroke="none"/>
    <path d="M -0.75,2.25 L -0.75,2 L -1,2 L -1,2.25 Z" fill="#333333" stroke="none"/>
    <path d="M 1,3 L 1,3.25 L 1.25,3.25 L 1.25,3 Z" fill="#333333" stroke="none"/>
    <path d="M 1.75,3 L 1.75,3.25 L 2,3.25 L 2,3 Z" fill="#333333" stroke="none"/>
    <path d="M 1,3.75 L 1,4 L 1.25,4 L 1.25,3.75 Z" fill="#333333" stroke="none"/>
    <path d="M 1.75,3.75 L 1.75,4 L 2,4 L 2,3.75 Z" fill="#333333" stroke="none"/>
    <path d="M 2,3 L 2,3.25 L 3,3.25 L 3,3 Z" fill="#333333" stroke="none"/>
    <path d="M 2,3.75 L 2,4 L 2.25,4 L 2.25,3.75 Z" fill="#333333" stroke="none"/>
    <path d="M 2.75,3.75 L 2.75,4 L 3,4 L 3,3.75 Z" fill="#333333" stroke="none"/>
    <path d="M 2,4.75 L 2,5 L 2.25,5 L 2.25,4.75 Z" fill="#333333" stroke="none"/>
    <path d="M 2.75,4.25 L 2.75,5 L 3,5 L 3,4.25 Z" fill="#333333" stroke="none"/>
    <path d="M 2,4 L 2,4.25 L 3,4.25 L 3,4 Z" fill="#333333" stroke="none"/>
    <path d="M 1,4 L 0.75,4 L 0.75,5 L 1,5 Z" fill="#333333" stroke="none"/>
    <path d="M 0.25,4 L 0,4 L 0,4.25 L 0.25,4.25 Z" fill="#333333" stroke="none"/>
    <path d="M 0.25,4.75 L 0,4.75 L 0,5 L 0.25,5 Z" fill="#333333" stroke="none"/>
    <polyline fill="none" stroke="red" stroke-width="0.1" points="2.5,2.5 1.5,2.5 1.5,1.5 2.5,1.5 2.5,0.5 1.5,0.5 0.5,0.5 0.5,1.5 0.5,2.5 0.5,3.5 1.5,3.5 2.5,3.5 2.5,4.5 1.5,4.5 " />
    <g stroke="#999" stroke-width="0.02">
        <line x1="-1.1" y1="0" x2="3.1" y2="0"/>
        <line x1="0" y1="-1.1" x2="0" y2="5.1"/>
    </g>
</svg>