<?xml version="1.0" encoding="UTF-8" standalone="no"?>
<svg xmlns="http://www.w3.org/2000/svg" width="1000" height="1000" viewBox="-0.100000 2.900000 4.200000 3.200000">
    <rect width="100%" height="100%" fill="#f8f8f8"/>
    <circle cx="0" cy="0" r="0.2" fill="red"/>
    <path d="M 0,5 L 0,5.25 L 1,5.25 L 1,5 Z" fill="#333333" stroke="none"/>
    <path d="M 0,5.75 L 0,6 L 0.25,6 L 0.25,5.75 Z" fill="#333333" stroke="none"/>
    <path d="M 0.75,5.75 L 0.75,6 L 1,6 L 1,5.75 Z" fill="#333333" stroke="none"/>
    <path d="M 0,6 L 0.25,6 L 0.25,5 L 1.19249e-08,5 Z" fill="#333333" stroke="none"/>
    <path d="M 0.75,6 L 1,6 L 1,5.75 L 0.75,5.75 Z" fill="#333333" stroke="none"/>
    <path d="M 0.75,5.25 L 1,5.25 L 1,5 L 0.75,5 Z" fill="#333333" stroke="none"/>
    <path d="M 1,6 L 1,5.75 L 0,5.75 L 0,6 Z" fill="#333333" stroke="none"/>
    <path d="M 1,5.25 L 1,5 L 0.75,5 L 0.75,5.25 Z" fill="#333333" stroke="none"/>
    <path d="M 0.25,5.25 L 0.25,5 L 5.96046e-08,5 L 5.96046e-08,5.25 Z" fill="#333333" stroke="none"/>
    <path d="M 1,5 L 0.75,5 L 0.75,5.25 L 1,5.25 Z" fill="#333333" stroke="none"/>
    <path d="M 1,5.75 L 0.25,5.75 L 0.25,6 L 1,6 Z" fill="#333333" stroke="none"/>
    <path d="M 0.25,5 L 0,5 L 0,6 L 0.25,6 Z" fill="#333333" stroke="none"/>
    <path d="M 2,5 L 2,4.25 L 1.75,4.25 L 1.75,5 Z" fill="#333333" stroke="none"/>
    <path d="M 1.25,5 L 1.25,4.75 L 1,4.75 L 1,5 Z" fill="#333333" stroke="none"/>
    <path d="M 2,4.25 L 2,4 L 1,4 L 1,4.25 Z" fill="#333333" stroke="none"/>
    <path d="M 2,4 L 1.75,4 L 1.75,4.25 L 2,4.25 Z" fill="#333333" stroke="none"/>
    <path d="M 2,4.75 L 1.25,4.75 L 1.25,5 L 2,5 Z" fill="#333333" stroke="none"/>
    <path d="M 1.25,4 L 1,4 L 1,5 L 1.25,5 Z" fill="#333333" stroke="none"/>
    <path d="M 3,4 L 3,3.25 L 2.75,3.25 L 2.75,4 Z" fill="#333333" stroke="none"/>
    <path d="M 2.25,3.75 L 2.25,3 L 2,3 L 2,3.75 Z" fill="#333333" stroke="none"/>
    <path d="M 3,3.25 L 3,3 L 2.75,3 L 2.75,3.25 Z" fill="#333333" stroke="none"/>
    <path d="M 3,5 L 3.25,5 L 3.25,4.75 L 3,4.75 Z" fill="#333333" stroke="none"/>
    <path d="M 3,4.25 L 3.25,4.25 L 3.25,4 L 3,4 Z" fill="#333333" stroke="none"/>
    <path d="M 3.75,5 L 4,5 L 4,4.75 L 3.75,4.75 Z" fill="#333333" stroke="none"/>
    <path d="M 3.75,4.25 L 4,4.25 L 4,4 L 3.75,4 Z" fill="#333333" stroke="none"/>
</svg>