<?xml version="1.0" encoding="UTF-8" standalone="no"?>
<svg xmlns="http://www.w3.org/2000/svg" width="1000" height="1000" viewBox="3.900000 0.900000 8.200001 9.200001">
    <rect width="100%" height="100%" fill="#f8f8f8"/>
    <circle cx="0" cy="0" r="0.2" fill="red"/>
    <path d="M 6,1 L 6,1.75 L 6.25,1.75 L 6.25,1 Z" fill="#333333" stroke="none"/>
    <path d="M 6.75,1 L 6.75,1.25 L 7,1.25 L 7,1 Z" fill="#333333" stroke="none"/>
    <path d="M 6,1.75 L 6,2 L 7,2 L 7,1.75 Z" fill="#333333" stroke="none"/>
    <path d="M 7,1 L 7,1.25 L 7.25,1.25 L 7.25,1 Z" fill="#333333" stroke="none"/>
    <path d="M 7.75,1 L 7.75,1.75 L 8,1.75 L 8,1 Z" fill="#333333" stroke="none"/>
    <path d="M 7,1.75 L 7,2 L 8,2 L 8,1.75 Z" fill="#333333" stroke="none"/>
    <path d="M 6,2 L 6,1.75 L 5,1.75 L 5,2 Z" fill="#333333" stroke="none"/>
    <path d="M 6,1.25 L 6,1 L 5.75,1 L 5.75,1.25 Z" fill="#333333" stroke="none"/>
    <path d="M 5.25,1.25 L 5.25,1 L 5,1 L 5,1.25 Z" fill="#333333" stroke="none"/>
    <path d="M 7,2 L 7,2.25 L 7.25,2.25 L 7.25,2 Z" fill="#333333" stroke="none"/>
    <path d="M 7.75,2 L 7.75,2.25 L 8,2.25 L 8,2 Z" fill="#333333" stroke="none"/>
    <path d="M 7,2.75 L 7,3 L 7.25,3 L 7.25,2.75 Z" fill="#333333" stroke="none"/>
    <path d="M 7.75,2.75 L 7.75,3 L 8,3 L 8,2.75 Z" fill="#333333" stroke="none"/>
    <path d="M 8,2 L 8.25,2 L 8.25,1 L 8,1 Z" fill="#333333" stroke="none"/>
    <path d="M 8.75,2 L 9,2 L 9,1.75 L 8.75,1.75 Z" fill="#333333" stroke="none"/>
    <path d="M 8.75,1.25 L 9,1.25 L 9,1 L 8.75,1 Z" fill="#333333" stroke="none"/>
    <path d="M 9,2 L 9,2.25 L 9.25,2.25 L 9.25,2 Z" fill="#333333" stroke="none"/>
    <path d="M 9.75,2 L 9.75,2.75 L 10,2.75 L 10,2 Z" fill="#333333" stroke="none"/>
    <path d="M 9,2.75 L 9,3 L 10,3 L 10,2.75 Z" fill="#333333" stroke="none"/>
    <path d="M 5,3 L 5,3.75 L 5.25,3.75 L 5.25,3 Z" fill="#333333" stroke="none"/>
    <path d="M 5.75,3 L 5.75,3.25 L 6,3.25 L 6,3 Z" fill="#333333" stroke="none"/>
    <path d="M 5,3.75 L 5,4 L 6,4 L 6,3.75 Z" fill="#333333" stroke="none"/>
    <path d="M 6,3 L 6,3.25 L 6.25,3.25 L 6.25,3 Z" fill="#333333" stroke="none"/>
    <path d="M 6.75,3 L 6.75,3.25 L 7,3.25 L 7,3 Z" fill="#333333" stroke="none"/>
    <path d="M 6,3.75 L 6,4 L 6.25,4 L 6.25,3.75 Z" fill="#333333" stroke="none"/>
    <path d="M 6.75,3.75 L 6.75,4 L 7,4 L 7,3.75 Z" fill="#333333" stroke="none"/>
    <path d="M 7,3 L 7,3.25 L 7.25,3.25 L 7.25,3 Z" fill="#333333" stroke="none"/>
    <path d="M 7.75,3 L 7.75,3.25 L 8,3.25 L 8,3 Z" fill="#333333" stroke="none"/>
    <path d="M 7,3.75 L 7,4 L 7.25,4 L 7.25,3.75 Z" fill="#333333" stroke="none"/>
    <path d="M 7.75,3.75 L 7.75,4 L 8,4 L 8,3.75 Z" fill="#333333" stroke="none"/>
    <path d="M 8,3 L 8,3.25 L 8.25,3.25 L 8.25,3 Z" fill="#333333" stroke="none"/>
    <path d="M 8.75,3 L 8.75,3.25 L 9,3.25 L 9,3 Z" fill="#333333" stroke="none"/>
    <path d="M 8,3.75 L 8,4 L 8.25,4 L 8.25,3.75 Z" fill="#333333" stroke="none"/>
    <path d="M 8.75,3.75 L 8.75,4 L 9,4 L 9,3.75 Z" fill="#333333" stroke="none"/>
    <path d="M 9,3 L 9,3.25 L 10,3.25 L 10,3 Z" fill="#333333" stroke="none"/>
    <path d="M 9,3.75 L 9,4 L 9.25,4 L 9.25,3.75 Z" fill="#333333" stroke="none"/>
    <path d="M 9.75,3.75 L 9.75,4 L 10,4 L 10,3.75 Z" fill="#333333" stroke="none"/>
    <path d="M 5,4 L 5,3.75 L 4,3.75 L 4,4 Z" fill="#333333" stroke="none"/>
    <path d="M 5,3.25 L 5,3 L 4.75,3 L 4.75,3.25 Z" fill="#333333" stroke="none"/>
    <path d="M 4.25,3.25 L 4.25,3 L 4,3 L 4,3.25 Z" fill="#333333" stroke="none"/>
    <path d="M 6,4 L 6,4.25 L 6.25,4.25 L 6.25,4 Z" fill="#333333" stroke="none"/>
    <path d="M 6.75,4 L 6.75,4.25 L 7,4.25 L 7,4 Z" fill="#333333" stroke="none"/>
    <path d="M 6,4.75 L 6,5 L 6.25,5 L 6.25,4.75 Z" fill="#333333" stroke="none"/>
    <path d="M 6.75,4.75 L 6.75,5 L 7,5 L 7,4.75 Z" fill="#333333" stroke="none"/>
    <path d="M 7,4 L 7,4.25 L 7.25,4.25 L 7.25,4 Z" fill="#333333" stroke="none"/>
    <path d="M 7.75,4 L 7.75,4.25 L 8,4.25 L 8,4 Z" fill="#333333" stroke="none"/>
    <path d="M 7,4.75 L 7,5 L 7.25,5 L 7.25,4.75 Z" fill="#333333" stroke="none"/>
    <path d="M 7.75,4.75 L 7.75,5 L 8,5 L 8,4.75 Z" fill="#333333" stroke="none"/>
    <path d="M 8,4 L 8,4.25 L 8.25,4.25 L 8.25,4 Z" fill="#333333" stroke="none"/>
    <path d="M 8.75,4 L 8.75,4.25 L 9,4.25 L 9,4 Z" fill="#333333" stroke="none"/>
    <path d="M 8,4.75 L 8,5 L 8.25,5 L 8.25,4.75 Z" fill="#333333" stroke="none"/>
    <path d="M 8.75,4.75 L 8.75,5 L 9,5 L 9,4.75 Z" fill="#333333" stroke="none"/>
    <path d="M 9,4 L 9,4.25 L 9.25,4.25 L 9.25,4 Z" fill="#333333" stroke="none"/>
    <path d="M 9.75,4 L 9.75,4.25 L 10,4.25 L 10,4 Z" fill="#333333" stroke="none"/>
    <path d="M 9,4.75 L 9,5 L 9.25,5 L 9.25,4.75 Z" fill="#333333" stroke="none"/>
    <path d="M 9.75,4.75 L 9.75,5 L 10,5 L 10,4.75 Z" fill="#333333" stroke="none"/>
    <path d="M 10,4 L 10,4.25 L 10.25,4.25 L 10.25,4 Z" fill="#333333" stroke="none"/>
    <path d="M 10.75,4 L 10.75,4.75 L 11,4.75 L 11,4 Z" fill="#333333" stroke="none"/>
    <path d="M 10,4.75 L 10,5 L 11,5 L 11,4.75 Z" fill="#333333" stroke="none"/>
    <path d="M 5,5 L 5,5.75 L 5.25,5.75 L 5.25,5 Z" fill="#333333" stroke="none"/>
    <path d="M 5.75,5.25 L 5.75,6 L 6,6 L 6,5.25 Z" fill="#333333" stroke="none"/>
    <path d="M 5,5.75 L 5,6 L 5.25,6 L 5.25,5.75 Z" fill="#333333" stroke="none"/>
    <path d="M 6,5 L 5.75,5 L 5.75,6 L 6,6 Z" fill="#333333" stroke="none"/>
    <path d="M 5.25,5 L 5,5 L 5,5.25 L 5.25,5.25 Z" fill="#333333" stroke="none"/>
    <path d="M 5.25,5.75 L 5,5.75 L 5,6 L 5.25,6 Z" fill="#333333" stroke="none"/>
    <path d="M 7,5 L 7,5.25 L 7.25,5.25 L 7.25,5 Z" fill="#333333" stroke="none"/>
    <path d="M 7.75,5 L 7.75,5.25 L 8,5.25 L 8,5 Z" fill="#333333" stroke="none"/>
    <path d="M 7,5.75 L 7,6 L 7.25,6 L 7.25,5.75 Z" fill="#333333" stroke="none"/>
    <path d="M 7.75,5.75 L 7.75,6 L 8,6 L 8,5.75 Z" fill="#333333" stroke="none"/>
    <path d="M 8,5 L 8,5.25 L 8.25,5.25 L 8.25,5 Z" fill="#333333" stroke="none"/>
    <path d="M 8.75,5 L 8.75,5.25 L 9,5.25 L 9,5 Z" fill="#333333" stroke="none"/>
    <path d="M 8,5.75 L 8,6 L 8.25,6 L 8.25,5.75 Z" fill="#333333" stroke="none"/>
    <path d="M 8.75,5.75 L 8.75,6 L 9,6 L 9,5.75 Z" fill="#333333" stroke="none"/>
    <path d="M 9,5 L 9,5.25 L 9.25,5.25 L 9.25,5 Z" fill="#333333" stroke="none"/>
    <path d="M 9.75,5 L 9.75,5.25 L 10,5.25 L 10,5 Z" fill="#333333" stroke="none"/>
    <path d="M 9,5.75 L 9,6 L 9.25,6 L 9.25,5.75 Z" fill="#333333" stroke="none"/>
    <path d="M 9.75,5.75 L 9.75,6 L 10,6 L 10,5.75 Z" fill="#333333" stroke="none"/>
    <path d="M 10,5 L 10,5.25 L 11,5.25 L 11,5 Z" fill="#333333" stroke="none"/>
    <path d="M 10,5.75 L 10,6 L 10.25,6 L 10.25,5.75 Z" fill="#333333" stroke="none"/>
    <path d="M 10.75,5.75 L 10.75,6 L 11,6 L 11,5.75 Z" fill="#333333" stroke="none"/>
    <path d="M 7,6 L 7,5.75 L 6,5.75 L 6,6 Z" fill="#333333" stroke="none"/>
    <path d="M 7,5.25 L 7,5 L 6.75,5 L 6.75,5.25 Z" fill="#333333" stroke="none"/>
    <path d="M 6.25,5.25 L 6.25,5 L 6,5 L 6,5.25 Z" fill="#333333" stroke="none"/>
    <path d="M 8,6 L 8,6.25 L 8.25,6.25 L 8.25,6 Z" fill="#333333" stroke="none"/>
    <path d="M 8.75,6 L 8.75,6.25 L 9,6.25 L 9,6 Z" fill="#333333" stroke="none"/>
    <path d="M 8,6.75 L 8,7 L 8.25,7 L 8.25,6.75 Z" fill="#333333" stroke="none"/>
    <path d="M 8.75,6.75 L 8.75,7 L 9,7 L 9,6.75 Z" fill="#333333" stroke="none"/>
    <path d="M 9,6 L 9,6.25 L 9.25,6.25 L 9.25,6 Z" fill="#333333" stroke="none"/>
    <path d="M 9.75,6 L 9.75,6.25 L 10,6.25 L 10,6 Z" fill="#333333" stroke="none"/>
    <path d="M 9,6.75 L 9,7 L 9.25,7 L 9.25,6.75 Z" fill="#333333" stroke="none"/>
    <path d="M 9.75,6.75 L 9.75,7 L 10,7 L 10,6.75 Z" fill="#333333" stroke="none"/>
    <path d="M 10,6 L 10,6.25 L 11,6.25 L 11,6 Z" fill="#333333" stroke="none"/>
    <path d="M 10,6.75 L 10,7 L 10.25,7 L 10.25,6.75 Z" fill="#333333" stroke="none"/>
    <path d="M 10.75,6.75 L 10.75,7 L 11,7 L 11,6.75 Z" fill="#333333" stroke="none"/>
    <path d="M 7,7 L 7,6.75 L 6,6.75 L 6,7 Z" fill="#333333" stroke="none"/>
    <path d="M 7,6.25 L 7,6 L 6.75,6 L 6.75,6.25 Z" fill="#333333" stroke="none"/>
    <path d="M 6.25,6.25 L 6.25,6 L 6,6 L 6,6.25 Z" fill="#333333" stroke="none"/>
    <path d="M 8,7 L 8,7.25 L 8.25,7.25 L 8.25,7 Z" fill="#333333" stroke="none"/>
    <path d="M 8.75,7 L 8.75,7.25 L 9,7.25 L 9,7 Z" fill="#333333" stroke="none"/>
    <path d="M 8,7.75 L 8,8 L 8.25,8 L 8.25,7.75 Z" fill="#333333" stroke="none"/>
    <path d="M 8.75,7.75 L 8.75,8 L 9,8 L 9,7.75 Z" fill="#333333" stroke="none"/>
    <path d="M 9,7 L 9,7.25 L 9.25,7.25 L 9.25,7 Z" fill="#333333" stroke="none"/>
    <path d="M 9.75,7 L 9.75,7.25 L 10,7.25 L 10,7 Z" fill="#333333" stroke="none"/>
    <path d="M 9,7.75 L 9,8 L 9.25,8 L 9.25,7.75 Z" fill="#333333" stroke="none"/>
    <path d="M 9.75,7.75 L 9.75,8 L 10,8 L 10,7.75 Z" fill="#333333" stroke="none"/>
    <path d="M 10,7 L 10,7.25 L 10.25,7.25 L 10.25,7 Z" fill="#333333" stroke="none"/>
    <path d="M 10.75,7 L 10.75,7.25 L 11,7.25 L 11,7 Z" fill="#333333" stroke="none"/>
    <path d="M 10,7.75 L 10,8 L 10.25,8 L 10.25,7.75 Z" fill="#333333" stroke="none"/>
    <path d="M 10.75,7.75 L 10.75,8 L 11,8 L 11,7.75 Z" fill="#333333" stroke="none"/>
    <path d="M 11,7 L 11,7.25 L 11.25,7.25 L 11.25,7 Z" fill="#333333" stroke="none"/>
    <path d="M 11.75,7 L 11.75,7.75 L 12,7.75 L 12,7 Z" fill="#333333" stroke="none"/>
    <path d="M 11,7.75 L 11,8 L 12,8 L 12,7.75 Z" fill="#333333" stroke="none"/>
    <path d="M 7,8 L 7,8.75 L 7.25,8.75 L 7.25,8 Z" fill="#333333" stroke="none"/>
    <path d="M 7.75,8.25 L 7.75,9 L 8,9 L 8,8.25 Z" fill="#333333" stroke="none"/>
    <path d="M 7,8.75 L 7,9 L 7.25,9 L 7.25,8.75 Z" fill="#333333" stroke="none"/>
    <path d="M 8,8 L 7.75,8 L 7.75,9 L 8,9 Z" fill="#333333" stroke="none"/>
    <path d="M 7.25,8 L 7,8 L 7,8.25 L 7.25,8.25 Z" fill="#333333" stroke="none"/>
    <path d="M 7.25,8.75 L 7,8.75 L 7,9 L 7.25,9 Z" fill="#333333" stroke="none"/>
    <path d="M 9,8 L 9,8.25 L 9.25,8.25 L 9.25,8 Z" fill="#333333" stroke="none"/>
    <path d="M 9.75,8 L 9.75,8.25 L 10,8.25 L 10,8 Z" fill="#333333" stroke="none"/>
    <path d="M 9,8.75 L 9,9 L 9.25,9 L 9.25,8.75 Z" fill="#333333" stroke="none"/>
    <path d="M 9.75,8.75 L 9.75,9 L 10,9 L 10,8.75 Z" fill="#333333" stroke="none"/>
    <path d="M 10,8 L 10,8.25 L 10.25,8.25 L 10.25,8 Z" fill="#333333" stroke="none"/>
    <path d="M 10.75,8 L 10.75,8.25 L 11,8.25 L 11,8 Z" fill="#333333" stroke="none"/>
    <path d="M 10,8.75 L 10,9 L 10.25,9 L 10.25,8.75 Z" fill="#333333" stroke="none"/>
    <path d="M 10.75,8.75 L 10.75,9 L 11,9 L 11,8.75 Z" fill="#333333" stroke="none"/>
    <path d="M 11,8.25 L 11,9 L 11.25,9 L 11.25,8.25 Z" fill="#333333" stroke="none"/>
    <path d="M 11.75,8.75 L 11.75,9 L 12,9 L 12,8.75 Z" fill="#333333" stroke="none"/>
    <path d="M 11,8 L 11,8.25 L 12,8.25 L 12,8 Z" fill="#333333" stroke="none"/>
    <path d="M 9,9 L 9,9.75 L 9.25,9.75 L 9.25,9 Z" fill="#333333" stroke="none"/>
    <path d="M 9.75,9.25 L 9.75,10 L 10,10 L 10,9.25 Z" fill="#333333" stroke="none"/>
    <path d="M 9,9.75 L 9,10 L 9.25,10 L 9.25,9.75 Z" fill="#333333" stroke="none"/>
    <path d="M 10,9.25 L 10,10 L 10.25,10 L 10.25,9.25 Z" fill="#333333" stroke="none"/>
    <path d="M 10.75,9.75 L 10.75,10 L 11,10 L 11,9.75 Z" fill="#333333" stroke="none"/>
    <path d="M 10,9 L 10,9.25 L 11,9.25 L 11,9 Z" fill="#333333" stroke="none"/>
    <g stroke="#999" stroke-width="0.02">
        <line x1="3.9" y1="0" x2="12.1" y2="0"/>
        <line x1="0" y1="0.9" x2="0" y2="10.1"/>
    </g>
</svg>