<?xml version="1.0" encoding="UTF-8" standalone="no"?>
<svg xmlns="http://www.w3.org/2000/svg" width="400" height="400" viewBox="0 0 400 400">
    <!-- Hintergrund -->
    <rect width="100%" height="100%" fill="#f8f8f8"/>
    
    <!-- Hilfsraster -->
    <line x1="0" y1="0.0" x2="400" y2="0.0" stroke="#ddd" stroke-width="1"/>
    <line x1="0.0" y1="0" x2="0.0" y2="400" stroke="#ddd" stroke-width="1"/>
    <line x1="0" y1="40.0" x2="400" y2="40.0" stroke="#ddd" stroke-width="1"/>
    <line x1="40.0" y1="0" x2="40.0" y2="400" stroke="#ddd" stroke-width="1"/>
    <text x="40.0" y="395" text-anchor="middle" font-size="12">0.1</text>
    <text x="5" y="360.0" font-size="12">0.1</text>
    <line x1="0" y1="80.0" x2="400" y2="80.0" stroke="#ddd" stroke-width="1"/>
    <line x1="80.0" y1="0" x2="80.0" y2="400" stroke="#ddd" stroke-width="1"/>
    <text x="80.0" y="395" text-anchor="middle" font-size="12">0.2</text>
    <text x="5" y="320.0" font-size="12">0.2</text>
    <line x1="0" y1="120.0" x2="400" y2="120.0" stroke="#ddd" stroke-width="1"/>
    <line x1="120.0" y1="0" x2="120.0" y2="400" stroke="#ddd" stroke-width="1"/>
    <text x="120.0" y="395" text-anchor="middle" font-size="12">0.3</text>
    <text x="5" y="280.0" font-size="12">0.3</text>
    <line x1="0" y1="160.0" x2="400" y2="160.0" stroke="#ddd" stroke-width="1"/>
    <line x1="160.0" y1="0" x2="160.0" y2="400" stroke="#ddd" stroke-width="1"/>
    <text x="160.0" y="395" text-anchor="middle" font-size="12">0.4</text>
    <text x="5" y="240.0" font-size="12">0.4</text>
    <line x1="0" y1="200.0" x2="400" y2="200.0" stroke="#ddd" stroke-width="1"/>
    <line x1="200.0" y1="0" x2="200.0" y2="400" stroke="#ddd" stroke-width="1"/>
    <text x="200.0" y="395" text-anchor="middle" font-size="12">0.5</text>
    <text x="5" y="200.0" font-size="12">0.5</text>
    <line x1="0" y1="240.0" x2="400" y2="240.0" stroke="#ddd" stroke-width="1"/>
    <line x1="240.0" y1="0" x2="240.0" y2="400" stroke="#ddd" stroke-width="1"/>
    <text x="240.0" y="395" text-anchor="middle" font-size="12">0.6</text>
    <text x="5" y="160.0" font-size="12">0.6</text>
    <line x1="0" y1="280.0" x2="400" y2="280.0" stroke="#ddd" stroke-width="1"/>
    <line x1="280.0" y1="0" x2="280.0" y2="400" stroke="#ddd" stroke-width="1"/>
    <text x="280.0" y="395" text-anchor="middle" font-size="12">0.7</text>
    <text x="5" y="120.0" font-size="12">0.7</text>
    <line x1="0" y1="320.0" x2="400" y2="320.0" stroke="#ddd" stroke-width="1"/>
    <line x1="320.0" y1="0" x2="320.0" y2="400" stroke="#ddd" stroke-width="1"/>
    <text x="320.0" y="395" text-anchor="middle" font-size="12">0.8</text>
    <text x="5" y="80.0" font-size="12">0.8</text>
    <line x1="0" y1="360.0" x2="400" y2="360.0" stroke="#ddd" stroke-width="1"/>
    <line x1="360.0" y1="0" x2="360.0" y2="400" stroke="#ddd" stroke-width="1"/>
    <text x="360.0" y="395" text-anchor="middle" font-size="12">0.9</text>
    <text x="5" y="40.0" font-size="12">0.9</text>
    <line x1="0" y1="400.0" x2="400" y2="400.0" stroke="#ddd" stroke-width="1"/>
    <line x1="400.0" y1="0" x2="400.0" y2="400" stroke="#ddd" stroke-width="1"/>
    
    <!-- Tile Name -->
    <text x="200.0" y="30" text-anchor="middle" font-size="20" fill="#666">curve_90_north_east</text>
    
    <!-- Wände -->
    <path d="M 0.0,400.0 L 0.0,100.0 L 100.0,100.0 L 100.0,400.0 Z" fill="#333333" stroke="none"/>
    <path d="M 100.0,400.0 L 100.0,300.0 L 400.0,300.0 L 400.0,400.0 Z" fill="#333333" stroke="none"/>
    <path d="M 0.0,100.0 L 0.0,0.0 L 100.0,0.0 L 100.0,100.0 Z" fill="#333333" stroke="none"/>
    <path d="M 300.0,100.0 L 300.0,0.0 L 400.0,0.0 L 400.0,100.0 Z" fill="#333333" stroke="none"/>
</svg>